<svg width="24" height="24" viewBox="0 0 24 24" fill="none" xmlns="http://www.w3.org/2000/svg">
<path d="M11.9809 6.75537H14.4285C15.3558 6.75537 16.2452 7.12375 16.9009 7.77948C17.5566 8.43521 17.925 9.32456 17.925 10.2519C17.925 11.1792 17.5566 12.0686 16.9009 12.7243C16.2452 13.38 15.3558 13.7484 14.4285 13.7484H10.5823L7.77461 16.7044C7.53444 16.9572 7.21859 17.1252 6.87466 17.1829C6.53073 17.2407 6.17735 17.185 5.86778 17.0245C5.55822 16.8639 5.30923 16.607 5.15834 16.2926C5.00745 15.9782 4.96284 15.6233 5.03123 15.2813L6.1739 9.56588C6.33251 8.77319 6.76089 8.05995 7.38614 7.54753C8.0114 7.03511 8.79489 6.75518 9.60329 6.75537H11.9809Z" stroke="#7E8299" stroke-width="1.2" stroke-linecap="round" stroke-linejoin="round"/>
<path d="M13.3794 13.7486L16.2256 16.7444C16.4653 16.9966 16.7803 17.1643 17.1233 17.2223C17.4664 17.2803 17.819 17.2254 18.1283 17.066C18.4376 16.9066 18.6868 16.6512 18.8387 16.3382C18.9905 16.0251 19.0367 15.6712 18.9703 15.3297L17.8515 9.573" stroke="#7E8299" stroke-width="1.2" stroke-linecap="round" stroke-linejoin="round"/>
<path d="M9.18359 9.55249V10.9511" stroke="#7E8299" stroke-width="1.2" stroke-linecap="round" stroke-linejoin="round"/>
<path d="M8.48438 10.252H9.88299" stroke="#7E8299" stroke-width="1.2" stroke-linecap="round" stroke-linejoin="round"/>
<path d="M13.3794 10.252H14.778" stroke="#7E8299" stroke-width="1.2" stroke-linecap="round" stroke-linejoin="round"/>
</svg>
