<svg width="58" height="48" viewBox="0 0 58 48" fill="none" xmlns="http://www.w3.org/2000/svg">
<g clip-path="url(#clip0_4010_4823)">
<path d="M28.5759 0H14.2042C13.6975 0 13.2115 0.20128 12.8533 0.559561C12.495 0.917842 12.2937 1.40378 12.2937 1.91046C12.2937 2.41715 12.495 2.90308 12.8533 3.26136C13.2115 3.61964 13.6975 3.82092 14.2042 3.82092H22.4854L21.4896 8.78969H8.05609C7.5494 8.78969 7.06347 8.99097 6.70519 9.34925C6.34691 9.70753 6.14563 10.1935 6.14563 10.7002C6.14563 11.2068 6.34691 11.6928 6.70519 12.0511C7.06347 12.4093 7.5494 12.6106 8.05609 12.6106H20.6981H26.7309C33.2459 12.6106 36.7418 15.7554 36.7418 21.3164C36.7418 29.1784 32.1452 35.3737 23.5756 35.3737H16.0648H8.05609C7.5494 35.3737 7.06347 35.5749 6.70519 35.9332C6.34691 36.2915 6.14563 36.7774 6.14563 37.2841C6.14563 37.7908 6.34691 38.2767 6.70519 38.635C7.06347 38.9933 7.5494 39.1946 8.05609 39.1946H15.2839L14.2723 44.1634H1.90802C1.40133 44.1634 0.9154 44.3646 0.55712 44.7229C0.198839 45.0812 -0.00244141 45.5671 -0.00244141 46.0738C-0.00244141 46.5805 0.198839 47.0664 0.55712 47.4247C0.9154 47.783 1.40133 47.9843 1.90802 47.9843H23.0253C40.5103 47.9843 53.0581 37.2867 53.0581 20.352C53.0581 7.74667 43.7337 0 28.5759 0Z" fill="#3461FF"/>
<path d="M32.7741 0H18.4024C17.8957 0 17.4098 0.20128 17.0515 0.559561C16.6932 0.917842 16.4919 1.40378 16.4919 1.91046C16.4919 2.41715 16.6932 2.90308 17.0515 3.26136C17.4098 3.61964 17.8957 3.82092 18.4024 3.82092H26.6837L25.6826 8.78969H12.2543C11.7476 8.78969 11.2617 8.99097 10.9034 9.34925C10.5451 9.70753 10.3439 10.1935 10.3439 10.7002C10.3439 11.2068 10.5451 11.6928 10.9034 12.0511C11.2617 12.4093 11.7476 12.6106 12.2543 12.6106H24.8964H30.9239C37.4389 12.6106 40.9348 15.7554 40.9348 21.3164C40.9348 29.1784 36.3382 35.3737 27.7686 35.3737H20.2578H12.2543C11.7476 35.3737 11.2617 35.5749 10.9034 35.9332C10.5451 36.2915 10.3439 36.7774 10.3439 37.2841C10.3439 37.7908 10.5451 38.2767 10.9034 38.635C11.2617 38.9933 11.7476 39.1946 12.2543 39.1946H19.4821L18.4705 44.1634H6.10626C5.59958 44.1634 5.11364 44.3646 4.75536 44.7229C4.39708 45.0812 4.1958 45.5671 4.1958 46.0738C4.1958 46.5805 4.39708 47.0664 4.75536 47.4247C5.11364 47.783 5.59958 47.9843 6.10626 47.9843H27.2235C44.7086 47.9843 57.2563 37.2867 57.2563 20.352C57.2563 7.74667 47.932 0 32.7741 0Z" fill="#16171B"/>
</g>
<defs>
<clipPath id="clip0_4010_4823">
<rect width="57.2562" height="48" fill="white"/>
</clipPath>
</defs>
</svg>
