<svg width="163" height="36" viewBox="0 0 163 36" fill="none" xmlns="http://www.w3.org/2000/svg">
<path d="M143.424 11.9571C144.881 11.2428 146.367 10.7285 147.881 10.4142C149.424 10.0713 151.138 9.8999 153.024 9.8999C154.852 9.8999 156.367 10.0428 157.567 10.3285C158.767 10.6142 159.724 11.0285 160.438 11.5713C161.152 12.1142 161.652 12.7571 161.938 13.4999C162.224 14.2428 162.367 15.0856 162.367 16.0285C162.367 16.5714 162.324 17.1571 162.238 17.7857C162.181 18.4142 162.109 18.9428 162.024 19.3714L160.009 28.8H153.109L152.338 26.0571H152.081C151.167 27.0571 150.095 27.8286 148.867 28.3714C147.667 28.8857 146.467 29.1429 145.267 29.1429C144.581 29.1429 143.909 29.0429 143.252 28.8429C142.595 28.6429 142.009 28.3429 141.495 27.9429C140.981 27.5143 140.566 26.9857 140.252 26.3571C139.938 25.7 139.781 24.9143 139.781 24C139.781 22.5143 140.181 21.3428 140.981 20.4857C141.809 19.6 142.881 18.9428 144.195 18.5142C145.538 18.0571 147.038 17.7714 148.695 17.6571C150.381 17.5428 152.067 17.4857 153.752 17.4857C153.809 17.1999 153.881 16.7999 153.967 16.2857C154.052 15.7428 154.095 15.2714 154.095 14.8714C154.095 14.3571 153.952 13.8856 153.667 13.4571C153.409 12.9999 152.852 12.7713 151.995 12.7713C150.995 12.7713 150.252 13.0713 149.767 13.6714C149.309 14.2428 149.009 14.9428 148.867 15.7714H142.609L143.424 11.9571ZM153.281 19.5H152.509C151.681 19.5 150.967 19.6142 150.367 19.8428C149.795 20.0428 149.324 20.3142 148.952 20.6571C148.609 21 148.352 21.3857 148.181 21.8143C148.009 22.2428 147.924 22.6714 147.924 23.1C147.924 23.7857 148.095 24.3 148.438 24.6428C148.809 24.9857 149.238 25.1571 149.724 25.1571C150.324 25.1571 150.909 24.9428 151.481 24.5143C152.081 24.0857 152.452 23.5143 152.595 22.8L153.281 19.5Z" fill="#FFFFFF"/>
<path d="M114.909 13.1142C115.509 12.5428 116.18 12.0142 116.923 11.5285C117.58 11.1285 118.366 10.757 119.28 10.4142C120.195 10.0713 121.223 9.8999 122.366 9.8999C123.738 9.8999 124.752 10.2142 125.409 10.8428C126.095 11.4713 126.48 12.2428 126.566 13.1571H126.823C127.48 12.5571 128.195 12.0142 128.966 11.5285C129.623 11.1285 130.395 10.757 131.28 10.4142C132.166 10.0713 133.109 9.8999 134.109 9.8999C135.595 9.8999 136.795 10.3142 137.709 11.1428C138.652 11.9428 139.123 12.9856 139.123 14.2714C139.123 14.9285 139.009 15.7999 138.781 16.8857C138.552 17.9714 138.295 19.1571 138.009 20.4428L136.209 28.8H127.766L130.08 17.6142C130.166 17.1857 130.252 16.7714 130.338 16.3714C130.423 15.9714 130.466 15.6428 130.466 15.3856C130.466 14.9856 130.352 14.6571 130.123 14.3999C129.895 14.1142 129.566 13.9714 129.138 13.9714C128.595 13.9714 128.08 14.1714 127.595 14.5714C127.138 14.9428 126.78 15.2571 126.523 15.5142L123.738 28.8H115.723L118.08 17.6142C118.138 17.2428 118.209 16.8714 118.295 16.4999C118.38 16.0999 118.423 15.7428 118.423 15.4285C118.423 14.9999 118.309 14.6571 118.08 14.3999C117.88 14.1142 117.566 13.9714 117.138 13.9714C116.623 13.9714 116.123 14.1571 115.638 14.5285C115.18 14.8999 114.823 15.2142 114.566 15.4714L111.738 28.8H102.995L106.895 10.3713H113.88L114.652 13.1142H114.909Z" fill="#FFFFFF"/>
<path d="M92.2724 9.8999C95.6724 9.8999 98.1439 10.4999 99.6867 11.6999C101.315 12.9571 102.13 15.0428 102.13 17.9571C102.13 19.7571 101.83 21.3857 101.23 22.8428C100.63 24.2714 99.7867 25.4571 98.701 26.4C96.5296 28.2286 93.3867 29.1429 89.2724 29.1429C85.7581 29.1429 83.2438 28.4714 81.7295 27.1286C80.1009 25.7286 79.2866 23.6285 79.2866 20.8285C79.2866 18.9714 79.6581 17.2857 80.4009 15.7714C81.1723 14.2571 82.2724 12.9999 83.7009 11.9999C85.7867 10.5999 88.6438 9.8999 92.2724 9.8999ZM89.3581 26.2286C90.0724 26.2286 90.6867 25.8286 91.201 25.0286C91.7438 24.2286 92.1724 23.2571 92.4867 22.1143C92.801 20.9428 93.0296 19.7428 93.1724 18.5142C93.3438 17.2571 93.4296 16.1714 93.4296 15.2571C93.4296 14.4571 93.3438 13.8571 93.1724 13.4571C93.0296 13.0285 92.701 12.8142 92.1867 12.8142C91.4153 12.8142 90.7438 13.2285 90.1724 14.0571C89.6295 14.8856 89.1867 15.8714 88.8438 17.0142C88.501 18.1571 88.2438 19.3285 88.0724 20.5285C87.9295 21.7285 87.8581 22.7 87.8581 23.4428C87.8581 25.3 88.3581 26.2286 89.3581 26.2286Z" fill="#FFFFFF"/>
<path d="M74.5305 28.8002H65.7876L71.8733 0H80.6591L74.5305 28.8002Z" fill="#FFFFFF"/>
<path d="M47.9597 36H39.2168L44.6168 10.3713H51.6026L52.374 13.1142H52.6312C53.6597 12.0284 54.8026 11.257 56.0597 10.7999C57.3455 10.3141 58.6026 10.0713 59.8312 10.0713C60.8312 10.0713 61.6598 10.2284 62.3169 10.5427C63.0026 10.8284 63.5455 11.2284 63.9455 11.7427C64.3455 12.257 64.6312 12.8713 64.8026 13.5856C64.9741 14.2999 65.0598 15.057 65.0598 15.857C65.0598 16.257 65.0312 16.857 64.9741 17.657C64.9169 18.457 64.7884 19.3571 64.5884 20.3571C64.3884 21.3285 64.1026 22.3428 63.7312 23.3999C63.3598 24.4285 62.8598 25.3714 62.2312 26.2285C61.6312 27.0857 60.8598 27.7857 59.9169 28.3285C59.0026 28.8714 57.9026 29.1428 56.6169 29.1428C55.9026 29.1428 55.2026 29.0571 54.5169 28.8857C53.8597 28.7142 53.2597 28.4857 52.7169 28.2C52.174 27.9142 51.6883 27.5857 51.2597 27.2142C50.8597 26.8142 50.5597 26.4142 50.3597 26.0142H50.1026L47.9597 36ZM52.5026 24.9857C53.1883 24.9857 53.7597 24.6285 54.2169 23.9142C54.674 23.1714 55.0455 22.3142 55.3312 21.3428C55.6169 20.3428 55.8169 19.3571 55.9312 18.3856C56.074 17.3856 56.1455 16.6428 56.1455 16.157C56.1455 15.5856 56.0455 15.1142 55.8455 14.7427C55.674 14.3713 55.3455 14.1856 54.8597 14.1856C54.3169 14.1856 53.8026 14.3856 53.3169 14.7856C52.8312 15.157 52.474 15.4856 52.2454 15.7713L50.574 23.6142C50.8026 23.9285 51.074 24.2428 51.3883 24.5571C51.7026 24.8428 52.074 24.9857 52.5026 24.9857Z" fill="#FFFFFF"/>
<path d="M36.9037 28.8002H28.2036L32.1036 10.3715H40.8894L36.9037 28.8002ZM42.0037 4.75718C42.0037 5.41433 41.8608 5.98576 41.5751 6.47148C41.318 6.9572 40.9608 7.37148 40.5037 7.71434C40.0751 8.0572 39.5751 8.31434 39.0037 8.48577C38.4322 8.6572 37.8465 8.74292 37.2465 8.74292C36.1037 8.74292 35.1465 8.47149 34.3751 7.92863C33.6036 7.38577 33.2179 6.52862 33.2179 5.35719C33.2179 4.72861 33.3465 4.17147 33.6036 3.68575C33.8608 3.17146 34.2036 2.75717 34.6322 2.44289C35.0894 2.10003 35.6037 1.84288 36.1751 1.67145C36.7751 1.50002 37.3894 1.41431 38.018 1.41431C39.1322 1.41431 40.0751 1.68574 40.8465 2.2286C41.618 2.77146 42.0037 3.61432 42.0037 4.75718Z" fill="#FFFFFF"/>
<path d="M0.256348 28.8L6.04209 1.58557H17.5707C19.3422 1.58557 20.885 1.77129 22.1993 2.14272C23.5422 2.48558 24.6422 3.0713 25.4993 3.89987C26.3851 4.72845 27.0422 5.81417 27.4708 7.15703C27.9279 8.4999 28.1565 10.1428 28.1565 12.0856C28.1565 14.1714 27.8851 16.2142 27.3422 18.2142C26.8279 20.2142 25.9565 22 24.7279 23.5714C23.4993 25.1428 21.885 26.4143 19.885 27.3857C17.9136 28.3286 15.4707 28.8 12.5564 28.8H0.256348ZM11.9993 25.8C12.9421 25.8 13.7707 25.4143 14.485 24.6428C15.2279 23.8428 15.8564 22.8428 16.3707 21.6428C16.9136 20.4142 17.3564 19.0714 17.6993 17.6142C18.0707 16.1285 18.3564 14.6999 18.5564 13.3285C18.785 11.9571 18.9422 10.7285 19.0279 9.64276C19.1422 8.55704 19.1993 7.78561 19.1993 7.32846C19.1993 6.44274 19.0136 5.75702 18.6422 5.27131C18.2993 4.75702 17.685 4.49987 16.7993 4.49987H14.7421L10.1564 25.8H11.9993Z" fill="#FFFFFF"/>
</svg>
