<svg width="24" height="24" viewBox="0 0 24 24" fill="none" xmlns="http://www.w3.org/2000/svg">
<path d="M17.2771 13.4341L18.6608 15.8314C18.7178 15.9301 18.7499 16.0411 18.7545 16.155C18.7591 16.2689 18.736 16.3821 18.6873 16.4851C18.6385 16.5881 18.5654 16.6777 18.4744 16.7463C18.3834 16.8148 18.2771 16.8603 18.1646 16.8787L18.0851 16.8864L18.0062 16.8857L15.9419 16.752L15.0248 18.6073C14.975 18.7078 14.9019 18.7949 14.8117 18.8615C14.7214 18.928 14.6166 18.9721 14.5059 18.99C14.3953 19.0079 14.2819 18.9991 14.1753 18.9644C14.0687 18.9297 13.9719 18.87 13.893 18.7903L13.8353 18.7242L13.7846 18.6468L12.3994 16.2488C13.3745 16.1878 14.3223 15.902 15.1685 15.4137C16.0147 14.9254 16.7364 14.2478 17.2771 13.4341Z" fill="#50CD89"/>
<path d="M11.5996 16.249L10.2159 18.6477C10.1598 18.7449 10.0813 18.8272 9.98697 18.888C9.89263 18.9487 9.78516 18.986 9.67348 18.9968C9.56181 19.0076 9.44917 18.9916 9.34493 18.9501C9.2407 18.9086 9.14789 18.8428 9.07422 18.7582L9.02072 18.6878L8.97568 18.6076L8.05786 16.7529L5.99489 16.8867C5.88125 16.894 5.76754 16.8736 5.66348 16.8274C5.55943 16.7811 5.46814 16.7103 5.39742 16.6211C5.32671 16.5318 5.27869 16.4268 5.25746 16.3149C5.23624 16.203 5.24245 16.0877 5.27556 15.9787L5.30371 15.9034L5.33891 15.833L6.72407 13.4336C7.2644 14.2473 7.9857 14.925 8.83153 15.4135C9.67736 15.9021 10.6248 16.1875 11.5996 16.249Z" fill="#50CD89"/>
<path d="M12.0007 5L12.1696 5.00282C13.4463 5.04661 14.6561 5.58459 15.5438 6.50325C16.4314 7.42192 16.9276 8.64945 16.9276 9.92692L16.9255 10.0628L16.9205 10.1979L16.9079 10.3703L16.8896 10.5407L16.8727 10.666C16.8264 10.9698 16.7517 11.2686 16.6496 11.5584L16.5679 11.7752L16.4602 12.0202C16.0618 12.869 15.4294 13.5865 14.6373 14.0884C13.8453 14.5904 12.9264 14.8559 11.9887 14.8538C11.051 14.8518 10.1334 14.5822 9.34358 14.0768C8.55375 13.5713 7.92454 12.851 7.52982 12.0005L7.43832 11.7914L7.40172 11.6978L7.34542 11.5451L7.27855 11.3381C7.25467 11.258 7.23284 11.1773 7.21309 11.096L7.17086 10.9053L7.13637 10.7145L7.1223 10.6167L7.09485 10.3893L7.07795 10.1324L7.07373 9.92692C7.07371 8.64945 7.56987 7.42192 8.45754 6.50325C9.34522 5.58459 10.555 5.04661 11.8317 5.00282L12.0007 5Z" fill="#50CD89"/>
</svg>
